<svg xmlns="http://www.w3.org/2000/svg" xmlns:xlink="http://www.w3.org/1999/xlink" id="svg" version="1.1" width="400" height="326.4957264957265" viewBox="0, 0, 400,326.4957264957265"><g id="svgg"><path id="path0" d="M173.851 11.263 C 56.637 32.449,10.381 178.462,94.017 263.272 C 183.708 354.222,334.964 301.465,350.658 173.758 C 362.672 76.000,272.778 -6.618,173.851 11.263 M233.487 29.043 C 332.648 53.991,368.204 175.190,298.559 250.855 C 292.568 257.363,291.060 258.120,284.072 258.120 C 279.782 258.120,269.938 260.182,262.198 262.703 L 248.123 267.287 230.804 264.109 C 214.146 261.053,213.163 261.047,205.035 263.970 C 194.663 267.700,188.805 267.754,173.826 264.257 C 158.769 260.742,153.607 260.854,140.446 264.979 C 122.481 270.611,111.653 264.573,93.326 238.705 C 20.587 136.040,112.470 -1.404,233.487 29.043 M210.308 53.385 C 201.154 58.199,197.220 67.950,200.172 78.510 C 200.651 80.223,198.674 81.346,193.543 82.275 C 166.756 87.124,131.900 130.609,145.172 142.620 C 150.487 147.430,153.753 145.237,162.285 131.131 C 176.061 108.358,181.662 105.963,172.540 126.746 C 168.319 136.363,166.495 143.975,164.690 159.519 C 163.396 170.654,161.085 182.202,159.554 185.181 C 157.369 189.434,145.122 208.562,142.543 211.750 C 142.259 212.102,137.195 213.506,131.290 214.870 C 118.435 217.840,116.239 219.427,116.239 225.749 C 116.239 232.716,118.003 233.244,144.444 234.188 L 168.376 235.043 169.930 244.843 C 171.568 255.167,171.716 255.306,183.255 257.349 L 189.587 258.471 190.093 245.999 L 190.598 233.527 211.966 229.752 C 270.327 219.440,285.532 212.485,296.815 190.940 C 304.140 176.954,295.576 176.467,257.141 188.686 C 223.438 199.401,225.745 199.684,231.413 185.526 C 239.846 164.460,237.232 157.145,216.974 145.109 C 210.459 141.239,205.128 137.763,205.128 137.386 C 205.128 134.637,211.047 116.239,211.931 116.239 C 212.544 116.239,214.690 119.164,216.699 122.739 C 225.301 138.044,259.254 149.564,265.894 139.431 C 270.411 132.537,266.948 129.047,250.341 123.757 C 234.775 118.799,233.008 117.281,225.671 102.564 C 223.562 98.333,220.251 93.141,218.313 91.026 L 214.789 87.179 220.346 87.179 C 224.262 87.179,227.444 85.640,231.114 81.970 C 244.451 68.632,226.973 44.619,210.308 53.385 M201.575 165.150 C 217.863 171.619,217.458 170.842,212.436 185.985 C 206.390 204.217,208.124 203.233,173.932 207.841 C 166.461 208.848,162.995 207.071,167.273 204.427 C 173.300 200.702,183.092 184.196,184.704 175.042 C 187.681 158.149,186.173 159.033,201.575 165.150 M176.693 279.636 C 191.681 282.565,191.975 282.556,203.490 278.847 L 215.133 275.098 232.194 278.574 C 241.577 280.487,249.865 282.051,250.610 282.051 C 254.975 282.051,246.905 285.750,235.897 288.795 C 218.472 293.614,198.569 294.943,182.877 292.334 C 167.294 289.743,143.590 282.492,143.590 280.316 C 143.590 278.246,153.727 275.280,158.120 276.064 C 160.000 276.400,168.358 278.007,176.693 279.636 " stroke="none" fill="#FFFFFF" fill-rule="evenodd"/></g></svg>